<svg xmlns="http://www.w3.org/2000/svg" id="hills-light" preserveAspectRatio="none" viewBox="0 0 1600 448" fill="none">
	<g clip-path="url(#clip0_8490_114535)">
		<rect width="1600" height="448" fill="#F7FAFF"></rect>
		<path d="M113.205 647.662C104.371 649.272 95.5443 650.346 86.7487 650.935L-20.8884 512.466C-82.4427 433.281 -11.7524 316.537 81.0465 344.114L324.123 416.344C309.085 529.77 227.787 626.798 113.205 647.662Z" fill="#004796"></path>
		<path d="M596.787 462.642L397.594 373.35C363.896 358.245 324.918 362.502 295.341 383.65L116.441 511.705C86.5191 533.604 70.3135 568.894 73.3409 605.563L93.6332 822.909C96.6606 859.578 119.433 890.611 153.131 905.717L351.574 994.672C385.273 1009.78 424.25 1005.52 453.827 984.372L632.728 856.318C662.649 834.419 678.855 799.128 675.828 762.459L655.535 545.114C652.163 509.196 629.736 477.412 596.787 462.642Z" fill="#B8DCFF"></path>
	</g>
</svg>
